<svg width="1961" height="2500" viewBox="0 0 1961 2500" fill="none" xmlns="http://www.w3.org/2000/svg">
<path d="M934.245 392.253V1747.02C934.245 1859.02 1108.3 1859.2 1108.3 1747.02V392.253C1108.3 280.248 934.245 280.074 934.245 392.253ZM1913.66 782.051C1739.6 863.248 1565.55 944.532 1391.49 1025.73C1376.96 1032.52 1377.56 1056.36 1391.49 1063.33C1559.71 1147.48 1728.03 1231.55 1896.25 1315.71C1921.23 1328.15 1943.33 1290.64 1918.18 1278.11C1749.96 1193.95 1581.65 1109.88 1413.42 1025.73V1063.33C1587.48 982.128 1761.53 900.844 1935.59 819.647C1961 807.811 1938.89 770.302 1913.66 782.051Z" fill="#F8F9FA"/>
<path d="M11.5748 1263.75C110.264 1731.44 485.094 2102.26 954.261 2195.3C1032.93 2210.88 1113.35 2219.66 1193.59 2219.84C1249.55 2219.93 1249.63 2132.9 1193.59 2132.81C757.752 2132.29 355.074 1876.17 173.273 1479.14C138.374 1403 112.701 1322.49 95.4698 1240.6C83.8951 1185.86 6.79493e-05 1209.01 11.5748 1263.75Z" fill="#F8F9FA"/>
</svg>
